<mxfile host="app.diagrams.net" agent="Mozilla/5.0 (Windows NT 10.0; Win64; x64) AppleWebKit/537.36 (KHTML, like Gecko) Chrome/133.0.0.0 Safari/537.36" version="26.0.16">
  <diagram name="Page-1" id="pR2u5gNIKS8MqnW3hatE">
    <mxGraphModel dx="1434" dy="780" grid="1" gridSize="10" guides="1" tooltips="1" connect="1" arrows="1" fold="1" page="1" pageScale="1" pageWidth="827" pageHeight="1169" math="0" shadow="0">
      <root>
        <mxCell id="0" />
        <mxCell id="1" parent="0" />
        <mxCell id="C3_57MOx5ljVAT1_80rP-1" value="&amp;nbsp; Developer Git Repo" style="verticalLabelPosition=bottom;html=1;verticalAlign=top;align=center;strokeColor=none;fillColor=#00BEF2;shape=mxgraph.azure.github_code;pointerEvents=1;labelBorderColor=default;labelBackgroundColor=light-dark(#1ef6e7, #ededed);" vertex="1" parent="1">
          <mxGeometry x="364.01" y="40" width="50" height="50" as="geometry" />
        </mxCell>
        <mxCell id="C3_57MOx5ljVAT1_80rP-3" value="AgroCD" style="outlineConnect=0;dashed=0;verticalLabelPosition=bottom;verticalAlign=top;align=center;html=1;shape=mxgraph.aws3.codedeploy;fillColor=#759C3E;gradientColor=none;labelBorderColor=default;labelBackgroundColor=light-dark(#2de6d1, #ededed);" vertex="1" parent="1">
          <mxGeometry x="361.63" y="190" width="54.75" height="51" as="geometry" />
        </mxCell>
        <mxCell id="C3_57MOx5ljVAT1_80rP-5" style="edgeStyle=orthogonalEdgeStyle;rounded=0;orthogonalLoop=1;jettySize=auto;html=1;entryX=0.5;entryY=0;entryDx=0;entryDy=0;entryPerimeter=0;" edge="1" parent="1" target="C3_57MOx5ljVAT1_80rP-3">
          <mxGeometry relative="1" as="geometry">
            <mxPoint x="389" y="110" as="sourcePoint" />
          </mxGeometry>
        </mxCell>
        <mxCell id="C3_57MOx5ljVAT1_80rP-6" value="&lt;font style=&quot;color: light-dark(rgb(10, 10, 10), rgb(0, 40, 19));&quot;&gt;Push Code&lt;/font&gt;" style="edgeLabel;html=1;align=center;verticalAlign=middle;resizable=0;points=[];" vertex="1" connectable="0" parent="C3_57MOx5ljVAT1_80rP-5">
          <mxGeometry x="0.02" y="-1" relative="1" as="geometry">
            <mxPoint as="offset" />
          </mxGeometry>
        </mxCell>
        <mxCell id="C3_57MOx5ljVAT1_80rP-7" value="Kubernetes Cluster" style="image;sketch=0;aspect=fixed;html=1;points=[];align=center;fontSize=12;image=img/lib/mscae/Kubernetes.svg;labelBackgroundColor=light-dark(#18dcab, #ededed);labelBorderColor=default;" vertex="1" parent="1">
          <mxGeometry x="364.01" y="340" width="50" height="48" as="geometry" />
        </mxCell>
        <mxCell id="C3_57MOx5ljVAT1_80rP-8" style="edgeStyle=orthogonalEdgeStyle;rounded=0;orthogonalLoop=1;jettySize=auto;html=1;entryX=0.547;entryY=0.063;entryDx=0;entryDy=0;entryPerimeter=0;" edge="1" parent="1" target="C3_57MOx5ljVAT1_80rP-7">
          <mxGeometry relative="1" as="geometry">
            <mxPoint x="389" y="270" as="sourcePoint" />
          </mxGeometry>
        </mxCell>
        <mxCell id="C3_57MOx5ljVAT1_80rP-9" value="Deployments&amp;nbsp;" style="edgeLabel;html=1;align=center;verticalAlign=middle;resizable=0;points=[];" vertex="1" connectable="0" parent="C3_57MOx5ljVAT1_80rP-8">
          <mxGeometry x="0.0194" y="2" relative="1" as="geometry">
            <mxPoint as="offset" />
          </mxGeometry>
        </mxCell>
        <mxCell id="C3_57MOx5ljVAT1_80rP-16" style="edgeStyle=orthogonalEdgeStyle;rounded=0;orthogonalLoop=1;jettySize=auto;html=1;entryX=0.5;entryY=0;entryDx=0;entryDy=0;" edge="1" parent="1" target="C3_57MOx5ljVAT1_80rP-15">
          <mxGeometry relative="1" as="geometry">
            <mxPoint x="389" y="580" as="sourcePoint" />
          </mxGeometry>
        </mxCell>
        <mxCell id="C3_57MOx5ljVAT1_80rP-17" value="Manage Service Mesh and Security" style="edgeLabel;html=1;align=center;verticalAlign=middle;resizable=0;points=[];" vertex="1" connectable="0" parent="C3_57MOx5ljVAT1_80rP-16">
          <mxGeometry x="0.1692" y="1" relative="1" as="geometry">
            <mxPoint as="offset" />
          </mxGeometry>
        </mxCell>
        <mxCell id="C3_57MOx5ljVAT1_80rP-11" value="Nginx Ingress Controller" style="points=[];aspect=fixed;html=1;align=center;shadow=0;dashed=0;fillColor=#FF6A00;strokeColor=none;shape=mxgraph.alibaba_cloud.alb_application_load_balancer_02;labelBorderColor=default;labelBackgroundColor=light-dark(#18c390, #ededed);labelPosition=center;verticalLabelPosition=bottom;verticalAlign=top;" vertex="1" parent="1">
          <mxGeometry x="359.01" y="500" width="60" height="60" as="geometry" />
        </mxCell>
        <mxCell id="C3_57MOx5ljVAT1_80rP-12" style="edgeStyle=orthogonalEdgeStyle;rounded=0;orthogonalLoop=1;jettySize=auto;html=1;entryX=0.5;entryY=0.017;entryDx=0;entryDy=0;entryPerimeter=0;" edge="1" parent="1" target="C3_57MOx5ljVAT1_80rP-11">
          <mxGeometry relative="1" as="geometry">
            <mxPoint x="389" y="410" as="sourcePoint" />
          </mxGeometry>
        </mxCell>
        <mxCell id="C3_57MOx5ljVAT1_80rP-13" value="Traffic Routing" style="edgeLabel;html=1;align=center;verticalAlign=middle;resizable=0;points=[];" vertex="1" connectable="0" parent="C3_57MOx5ljVAT1_80rP-12">
          <mxGeometry x="0.0441" relative="1" as="geometry">
            <mxPoint as="offset" />
          </mxGeometry>
        </mxCell>
        <mxCell id="C3_57MOx5ljVAT1_80rP-28" style="edgeStyle=orthogonalEdgeStyle;rounded=0;orthogonalLoop=1;jettySize=auto;html=1;" edge="1" parent="1" source="C3_57MOx5ljVAT1_80rP-15" target="C3_57MOx5ljVAT1_80rP-25">
          <mxGeometry relative="1" as="geometry" />
        </mxCell>
        <mxCell id="C3_57MOx5ljVAT1_80rP-29" value="Manages Security and DB Config" style="edgeLabel;html=1;align=center;verticalAlign=middle;resizable=0;points=[];" vertex="1" connectable="0" parent="C3_57MOx5ljVAT1_80rP-28">
          <mxGeometry x="0.6613" y="-1" relative="1" as="geometry">
            <mxPoint as="offset" />
          </mxGeometry>
        </mxCell>
        <mxCell id="C3_57MOx5ljVAT1_80rP-15" value="Istio" style="editableCssRules=.*;html=1;shape=image;verticalLabelPosition=bottom;labelBackgroundColor=light-dark(#1ad1ac, #121212);verticalAlign=top;aspect=fixed;imageAspect=0;image=data:image/svg+xml,PHN2ZyB4bWxucz0iaHR0cDovL3d3dy53My5vcmcvMjAwMC9zdmciIHhtbG5zOnY9Imh0dHBzOi8vdmVjdGEuaW8vbmFubyIgd2lkdGg9IjE2MCIgaGVpZ2h0PSIyNDAiIHZpZXdCb3g9IjAgMCAxNjAgMjQwIj4mI3hhOwk8c3R5bGUgdHlwZT0idGV4dC9jc3MiPiYjeGE7CS5zdDB7ZmlsbDojNDY2YmIwO30mI3hhOwk8L3N0eWxlPiYjeGE7CTxwYXRoIGNsYXNzPSJzdDAiIGQ9Ik02MCAyNDBMMCAyMTBoMTYwem0wLTE2MEwwIDIwMGw2MC0xMHpNNzAgMHYxOTBsOTAgMTB6Ii8+JiN4YTs8L3N2Zz4=;fontColor=default;labelBorderColor=default;" vertex="1" parent="1">
          <mxGeometry x="376.01" y="690" width="26" height="40" as="geometry" />
        </mxCell>
        <mxCell id="C3_57MOx5ljVAT1_80rP-33" value="" style="edgeStyle=orthogonalEdgeStyle;rounded=0;orthogonalLoop=1;jettySize=auto;html=1;" edge="1" parent="1" source="C3_57MOx5ljVAT1_80rP-24">
          <mxGeometry relative="1" as="geometry">
            <mxPoint x="240" y="950" as="targetPoint" />
          </mxGeometry>
        </mxCell>
        <mxCell id="C3_57MOx5ljVAT1_80rP-35" value="Logs and Metrics" style="edgeLabel;html=1;align=center;verticalAlign=middle;resizable=0;points=[];" vertex="1" connectable="0" parent="C3_57MOx5ljVAT1_80rP-33">
          <mxGeometry x="-0.0056" y="-1" relative="1" as="geometry">
            <mxPoint x="-1" y="-1" as="offset" />
          </mxGeometry>
        </mxCell>
        <mxCell id="C3_57MOx5ljVAT1_80rP-24" value="Backend Services" style="points=[];aspect=fixed;html=1;align=center;shadow=0;dashed=0;fillColor=#FF6A00;strokeColor=none;shape=mxgraph.alibaba_cloud.swas_simple_application_server;labelPosition=center;verticalLabelPosition=bottom;verticalAlign=top;labelBackgroundColor=light-dark(#43cb5a, #ededed);labelBorderColor=default;" vertex="1" parent="1">
          <mxGeometry x="210" y="800" width="60" height="60" as="geometry" />
        </mxCell>
        <mxCell id="C3_57MOx5ljVAT1_80rP-40" style="edgeStyle=orthogonalEdgeStyle;rounded=0;orthogonalLoop=1;jettySize=auto;html=1;entryX=0.5;entryY=0;entryDx=0;entryDy=0;" edge="1" parent="1" source="C3_57MOx5ljVAT1_80rP-25" target="C3_57MOx5ljVAT1_80rP-39">
          <mxGeometry relative="1" as="geometry" />
        </mxCell>
        <mxCell id="C3_57MOx5ljVAT1_80rP-41" value="Security and Secrets management" style="edgeLabel;html=1;align=center;verticalAlign=middle;resizable=0;points=[];" vertex="1" connectable="0" parent="C3_57MOx5ljVAT1_80rP-40">
          <mxGeometry x="-0.0222" y="1" relative="1" as="geometry">
            <mxPoint as="offset" />
          </mxGeometry>
        </mxCell>
        <mxCell id="C3_57MOx5ljVAT1_80rP-25" value="Databases" style="image;html=1;image=img/lib/clip_art/computers/Database_128x128.png;labelBackgroundColor=light-dark(#1bbb58, #ededed);labelBorderColor=default;" vertex="1" parent="1">
          <mxGeometry x="520" y="800" width="80" height="60" as="geometry" />
        </mxCell>
        <mxCell id="C3_57MOx5ljVAT1_80rP-26" style="edgeStyle=orthogonalEdgeStyle;rounded=0;orthogonalLoop=1;jettySize=auto;html=1;entryX=0.5;entryY=-0.033;entryDx=0;entryDy=0;entryPerimeter=0;" edge="1" parent="1" source="C3_57MOx5ljVAT1_80rP-15" target="C3_57MOx5ljVAT1_80rP-24">
          <mxGeometry relative="1" as="geometry" />
        </mxCell>
        <mxCell id="C3_57MOx5ljVAT1_80rP-27" value="Directs Traffic to Applications" style="edgeLabel;html=1;align=center;verticalAlign=middle;resizable=0;points=[];" vertex="1" connectable="0" parent="C3_57MOx5ljVAT1_80rP-26">
          <mxGeometry x="0.6159" relative="1" as="geometry">
            <mxPoint as="offset" />
          </mxGeometry>
        </mxCell>
        <mxCell id="C3_57MOx5ljVAT1_80rP-30" value="Prometheus" style="points=[];aspect=fixed;html=1;align=center;shadow=0;dashed=0;fillColor=#FF6A00;strokeColor=none;shape=mxgraph.alibaba_cloud.prometheus;labelPosition=center;verticalLabelPosition=bottom;verticalAlign=top;labelBackgroundColor=light-dark(#2ed185, #ededed);labelBorderColor=default;" vertex="1" parent="1">
          <mxGeometry x="160" y="960" width="50" height="50" as="geometry" />
        </mxCell>
        <mxCell id="C3_57MOx5ljVAT1_80rP-31" value="Grafana" style="image;aspect=fixed;html=1;points=[];align=center;fontSize=12;image=img/lib/azure2/other/Grafana.svg;labelBackgroundColor=light-dark(#1dd765, #ededed);labelBorderColor=default;" vertex="1" parent="1">
          <mxGeometry x="270" y="960" width="64.4" height="50" as="geometry" />
        </mxCell>
        <mxCell id="C3_57MOx5ljVAT1_80rP-34" value="" style="rounded=0;whiteSpace=wrap;html=1;fillColor=none;" vertex="1" parent="1">
          <mxGeometry x="125.38999999999999" y="950" width="233.62" height="100" as="geometry" />
        </mxCell>
        <mxCell id="C3_57MOx5ljVAT1_80rP-36" value="&lt;span style=&quot;&quot;&gt;Vaults&lt;/span&gt;" style="sketch=0;outlineConnect=0;fontColor=#232F3E;gradientColor=none;fillColor=#7AA116;strokeColor=none;dashed=0;verticalLabelPosition=bottom;verticalAlign=top;align=center;html=1;fontSize=12;fontStyle=0;aspect=fixed;pointerEvents=1;shape=mxgraph.aws4.vault;labelBackgroundColor=light-dark(#25c14c, #ededed);labelBorderColor=default;" vertex="1" parent="1">
          <mxGeometry x="470" y="960" width="39.74" height="50" as="geometry" />
        </mxCell>
        <mxCell id="C3_57MOx5ljVAT1_80rP-38" value="RBAC" style="verticalLabelPosition=bottom;html=1;verticalAlign=top;align=center;strokeColor=none;fillColor=#00BEF2;shape=mxgraph.azure.access_control;labelBackgroundColor=light-dark(#1fe547, #ededed);labelBorderColor=default;" vertex="1" parent="1">
          <mxGeometry x="600" y="960" width="50" height="50" as="geometry" />
        </mxCell>
        <mxCell id="C3_57MOx5ljVAT1_80rP-39" value="" style="rounded=0;whiteSpace=wrap;html=1;fillColor=none;" vertex="1" parent="1">
          <mxGeometry x="443.19" y="950" width="233.62" height="100" as="geometry" />
        </mxCell>
      </root>
    </mxGraphModel>
  </diagram>
</mxfile>
